<svg xmlns="http://www.w3.org/2000/svg" width="512" height="512" viewBox="0 0 512 512" fill="none"><metadata><rdf:RDF xmlns:rdf="http://www.w3.org/1999/02/22-rdf-syntax-ns#" xmlns:dc="http://purl.org/dc/elements/1.1/"><rdf:Description><dc:creator>RealFaviconGenerator</dc:creator><dc:source>https://realfavicongenerator.net</dc:source></rdf:Description></rdf:RDF></metadata><path d="M55.2233 187.826C55.2233 185.063 55.9191 182.916 57.3304 181.346C58.7218 179.775 60.7693 179 63.4329 179H71.8214V184.784H65.4008C64.0889 184.784 63.1348 185.083 62.5384 185.699C61.9421 186.315 61.6439 187.269 61.6439 188.601V194.008H73.4116V199.931H61.6439V220.406H55.2233V199.931H46V194.008H55.2233V187.846V187.826Z" fill="black"></path><path d="M94.7206 221.28C91.3613 221.28 88.3796 220.525 85.7159 219.014C83.0722 217.503 81.0049 215.456 79.514 212.872C78.0232 210.288 77.2877 207.406 77.2877 204.225C77.2877 201.045 78.0232 198.162 79.514 195.578C81.0049 192.994 83.0523 190.947 85.6762 189.476C88.3001 188.005 91.3215 187.249 94.7007 187.249C98.08 187.249 101.042 187.985 103.666 189.476C106.29 190.967 108.337 192.994 109.808 195.578C111.279 198.162 111.995 201.045 111.995 204.225C111.995 207.406 111.259 210.288 109.808 212.872C108.357 215.456 106.29 217.503 103.646 219.014C101.002 220.525 98.0204 221.28 94.7007 221.28H94.7206ZM94.7206 215.615C96.8476 215.615 98.7161 215.098 100.346 214.084C101.976 213.071 103.248 211.699 104.123 209.99C105.017 208.28 105.455 206.352 105.455 204.225C105.455 202.098 105.017 200.17 104.123 198.441C103.228 196.711 101.976 195.34 100.346 194.366C98.7161 193.392 96.8277 192.895 94.7206 192.895C92.6136 192.895 90.7053 193.392 89.0554 194.386C87.4056 195.379 86.1135 196.731 85.1991 198.461C84.2847 200.17 83.8275 202.098 83.8275 204.225C83.8275 206.352 84.2847 208.221 85.1991 209.95C86.1135 211.699 87.3857 213.071 89.0554 214.084C90.7252 215.098 92.5937 215.615 94.7206 215.615Z" fill="black"></path><path d="M119.329 188.203H125.571V194.505C126.803 192.219 128.354 190.529 130.242 189.456C132.131 188.382 134.516 187.826 137.398 187.826C138.293 187.826 139.048 187.885 139.684 188.024V194.445H136.563C133.462 194.445 130.898 195.161 128.831 196.572C126.764 197.983 125.75 200.766 125.75 204.881V220.405H119.329V188.223V188.203Z" fill="black"></path><path d="M146.562 188.203H152.804V194.505C154.036 192.219 155.587 190.529 157.475 189.456C159.364 188.382 161.749 187.826 164.631 187.826C165.526 187.826 166.281 187.885 166.917 188.024V194.445H163.797C160.696 194.445 158.131 195.161 156.064 196.572C153.997 197.983 152.983 200.766 152.983 204.881V220.405H146.562V188.223V188.203Z" fill="black"></path><path d="M186.954 221.28C183.694 221.28 180.772 220.585 178.168 219.173C175.564 217.762 173.556 215.774 172.085 213.17C170.615 210.566 169.899 207.525 169.899 204.046C169.899 200.905 170.595 198.063 172.006 195.519C173.397 192.974 175.385 190.967 177.949 189.476C180.514 187.985 183.495 187.249 186.895 187.249C190.294 187.249 193.315 187.985 195.84 189.436C198.364 190.907 200.312 192.875 201.664 195.36C203.015 197.844 203.691 200.587 203.691 203.589V205.617H176.22C176.439 208.797 177.572 211.302 179.619 213.15C181.667 214.999 184.191 215.913 187.153 215.913C189.658 215.913 191.745 215.337 193.414 214.204C195.084 213.051 196.158 211.62 196.635 209.87H203.433C202.538 213.349 200.65 216.112 197.748 218.179C194.846 220.247 191.248 221.26 186.974 221.26L186.954 221.28ZM197.072 200.349C196.694 198.023 195.601 196.135 193.792 194.723C191.983 193.312 189.697 192.597 186.895 192.597C184.092 192.597 181.885 193.312 179.997 194.763C178.108 196.214 176.936 198.063 176.459 200.369H197.072V200.349Z" fill="black"></path><path d="M210.986 188.203H217.228V194.505C218.46 192.219 220.011 190.529 221.899 189.456C223.788 188.382 226.173 187.826 229.055 187.826C229.95 187.826 230.705 187.885 231.341 188.024V194.445H228.22C225.12 194.445 222.555 195.161 220.488 196.572C218.421 197.983 217.407 200.766 217.407 204.881V220.405H210.986V188.223V188.203Z" fill="black"></path><path d="M48.2858 269.047L71.7615 249.646H48.2858V243.862H78.8182V250.918L55.4816 270.259H78.1821V276.044H48.2858V269.047Z" fill="black"></path><path d="M86.392 232.611H93.8263V240.045H86.392V232.611ZM86.8889 243.861H93.2498V276.044H86.8889V243.861Z" fill="black"></path><path d="M102.791 243.861H109.033V249.328C110.007 247.3 111.438 245.71 113.287 244.597C115.155 243.484 117.402 242.907 120.025 242.907C122.649 242.907 124.975 243.504 126.963 244.716C128.951 245.929 130.422 247.658 131.356 249.904C132.449 247.738 134.019 246.028 136.027 244.776C138.035 243.523 140.42 242.907 143.183 242.907C147.039 242.907 150.121 244.06 152.406 246.366C154.692 248.672 155.845 251.912 155.845 256.066V276.044H149.425V257.537C149.425 254.735 148.729 252.568 147.318 251.017C145.926 249.467 144.098 248.692 141.851 248.692C139.188 248.692 136.961 249.586 135.212 251.355C133.443 253.144 132.568 255.589 132.568 258.73V276.024H126.148V257.517C126.148 254.754 125.432 252.608 123.981 251.037C122.53 249.467 120.701 248.692 118.455 248.692C115.791 248.692 113.585 249.586 111.836 251.355C110.086 253.144 109.232 255.589 109.232 258.73V276.024H102.811V243.841L102.791 243.861Z" fill="black"></path><path d="M165.068 243.861H171.31V249.328C172.284 247.3 173.715 245.71 175.564 244.597C177.432 243.484 179.679 242.907 182.302 242.907C184.926 242.907 187.252 243.504 189.24 244.716C191.228 245.929 192.699 247.658 193.633 249.904C194.726 247.738 196.297 246.028 198.304 244.776C200.312 243.523 202.697 242.907 205.46 242.907C209.317 242.907 212.398 244.06 214.684 246.366C216.97 248.672 218.122 251.912 218.122 256.066V276.044H211.702V257.537C211.702 254.735 211.006 252.568 209.595 251.017C208.203 249.467 206.375 248.692 204.128 248.692C201.465 248.692 199.238 249.586 197.489 251.355C195.72 253.144 194.845 255.589 194.845 258.73V276.024H188.425V257.517C188.425 254.754 187.709 252.608 186.258 251.037C184.807 249.467 182.978 248.692 180.732 248.692C178.068 248.692 175.862 249.586 174.113 251.355C172.364 253.144 171.509 255.589 171.509 258.73V276.024H165.088V243.841L165.068 243.861Z" fill="black"></path><path d="M242.155 276.938C238.895 276.938 235.973 276.242 233.369 274.831C230.765 273.42 228.757 271.432 227.286 268.828C225.815 266.224 225.1 263.183 225.1 259.704C225.1 256.563 225.796 253.721 227.207 251.176C228.598 248.632 230.586 246.624 233.15 245.134C235.715 243.643 238.696 242.907 242.095 242.907C245.495 242.907 248.516 243.643 251.04 245.094C253.565 246.565 255.513 248.533 256.865 251.017C258.216 253.502 258.892 256.245 258.892 259.247V261.274H231.421C231.64 264.455 232.773 266.959 234.82 268.808C236.868 270.657 239.392 271.571 242.354 271.571C244.858 271.571 246.946 270.995 248.615 269.862C250.285 268.709 251.359 267.278 251.836 265.528H258.634C257.739 269.007 255.851 271.77 252.949 273.837C250.047 275.905 246.449 276.918 242.175 276.918L242.155 276.938ZM252.273 256.007C251.895 253.681 250.802 251.793 248.993 250.381C247.184 248.97 244.898 248.254 242.095 248.254C239.293 248.254 237.086 248.97 235.198 250.421C233.309 251.872 232.137 253.721 231.66 256.027H252.273V256.007Z" fill="black"></path><path d="M266.207 243.861H272.449V250.163C273.681 247.877 275.232 246.187 277.12 245.114C279.009 244.04 281.394 243.484 284.276 243.484C285.171 243.484 285.926 243.543 286.562 243.683V250.103H283.441C280.34 250.103 277.776 250.819 275.709 252.23C273.642 253.641 272.628 256.424 272.628 260.539V276.064H266.207V243.881V243.861Z" fill="black"></path><path d="M293.42 243.861H299.662V249.328C300.636 247.3 302.067 245.71 303.915 244.597C305.784 243.484 308.03 242.907 310.654 242.907C313.278 242.907 315.604 243.504 317.591 244.716C319.579 245.929 321.05 247.658 321.984 249.904C323.078 247.738 324.648 246.028 326.656 244.776C328.663 243.523 331.049 242.907 333.812 242.907C337.668 242.907 340.749 244.06 343.035 246.366C345.321 248.672 346.474 251.912 346.474 256.066V276.044H340.053V257.537C340.053 254.735 339.358 252.568 337.946 251.017C336.555 249.467 334.726 248.692 332.48 248.692C329.816 248.692 327.59 249.586 325.841 251.355C324.072 253.144 323.197 255.589 323.197 258.73V276.024H316.776V257.517C316.776 254.754 316.061 252.608 314.61 251.037C313.159 249.467 311.33 248.692 309.084 248.692C306.42 248.692 304.214 249.586 302.464 251.355C300.715 253.144 299.86 255.589 299.86 258.73V276.024H293.44V243.841L293.42 243.861Z" fill="black"></path><path d="M367.286 276.938C363.251 276.938 360.031 276.004 357.626 274.136C355.201 272.267 354.008 269.743 354.008 266.562C354.008 264.058 354.843 262.07 356.493 260.619C358.142 259.148 360.528 258.253 363.609 257.915L375.436 256.524C377.682 256.265 378.815 255.271 378.815 253.542C378.815 252.091 378.12 250.878 376.708 249.845C375.317 248.831 373.448 248.314 371.103 248.314C368.598 248.314 366.451 248.851 364.682 249.944C362.893 251.018 361.72 252.508 361.124 254.357H354.008C354.525 252.29 355.578 250.362 357.188 248.593C358.798 246.843 360.806 245.452 363.231 244.418C365.656 243.404 368.26 242.888 371.063 242.888C375.516 242.888 378.994 243.921 381.499 245.969C384.004 248.036 385.256 250.839 385.256 254.397V276.024H379.014V270.1C377.921 272.386 376.37 274.096 374.363 275.229C372.375 276.342 370.01 276.919 367.306 276.919L367.286 276.938ZM367.982 271.532C369.93 271.532 371.719 271.154 373.349 270.418C374.979 269.683 376.291 268.61 377.265 267.198C378.239 265.807 378.736 264.137 378.736 262.229V259.565C377.802 260.46 376.51 261.016 374.86 261.215L365.696 262.428C363.907 262.686 362.615 263.143 361.82 263.819C361.005 264.495 360.607 265.429 360.607 266.622C360.607 268.192 361.303 269.405 362.675 270.24C364.046 271.094 365.815 271.512 367.982 271.512V271.532Z" fill="black"></path><path d="M394.44 243.862H400.681V249.388C401.735 247.32 403.305 245.71 405.353 244.577C407.4 243.464 409.805 242.888 412.568 242.888C416.464 242.888 419.625 244.021 422.01 246.287C424.415 248.553 425.608 251.654 425.608 255.609V276.024H419.188V257.577C419.188 254.775 418.452 252.588 416.961 251.018C415.47 249.447 413.403 248.672 410.72 248.672C408.931 248.672 407.301 249.07 405.79 249.845C404.279 250.64 403.086 251.753 402.192 253.184C401.297 254.635 400.86 256.305 400.86 258.213V276.024H394.44V243.842V243.862Z" fill="black"></path><path d="M434.832 243.862H441.073V249.388C442.127 247.32 443.697 245.71 445.745 244.577C447.792 243.464 450.197 242.888 452.96 242.888C456.856 242.888 460.017 244.021 462.402 246.287C464.807 248.553 466 251.654 466 255.609V276.024H459.58V257.577C459.58 254.775 458.844 252.588 457.353 251.018C455.862 249.447 453.795 248.672 451.112 248.672C449.323 248.672 447.693 249.07 446.182 249.845C444.671 250.64 443.478 251.753 442.584 253.184C441.689 254.635 441.252 256.305 441.252 258.213V276.024H434.832V243.842V243.862Z" fill="black"></path><path d="M61.3856 332.596C57.3504 332.596 54.1302 331.662 51.725 329.794C49.2999 327.925 48.1072 325.401 48.1072 322.22C48.1072 319.716 48.942 317.728 50.5919 316.277C52.2418 314.806 54.6271 313.911 57.7082 313.573L69.5356 312.182C71.7818 311.923 72.9149 310.93 72.9149 309.2C72.9149 307.749 72.2191 306.537 70.8078 305.503C69.4164 304.489 67.5478 303.972 65.2022 303.972C62.6975 303.972 60.5508 304.509 58.7816 305.602C56.9926 306.676 55.8198 308.167 55.2235 310.015H48.1072C48.624 307.948 49.6775 306.02 51.2876 304.251C52.8977 302.501 54.9054 301.11 57.3305 300.076C59.7556 299.062 62.3596 298.546 65.1624 298.546C69.6151 298.546 73.0938 299.579 75.5984 301.627C78.103 303.694 79.3553 306.497 79.3553 310.055V331.682H73.1136V325.758C72.0204 328.044 70.4699 329.754 68.4622 330.887C66.4744 332 64.1089 332.577 61.4055 332.577L61.3856 332.596ZM62.0813 327.19C64.0294 327.19 65.8184 326.812 67.4484 326.077C69.0784 325.341 70.3904 324.268 71.3644 322.856C72.3384 321.465 72.8353 319.795 72.8353 317.887V315.223C71.9011 316.118 70.609 316.674 68.9592 316.873L59.7954 318.086C58.0064 318.344 56.7143 318.801 55.9192 319.477C55.1042 320.153 54.7067 321.087 54.7067 322.28C54.7067 323.85 55.4024 325.063 56.7739 325.898C58.1455 326.752 59.9146 327.17 62.0813 327.17V327.19Z" fill="black"></path><path d="M88.5389 299.52H94.7806V305.821C96.013 303.535 97.5635 301.845 99.4519 300.772C101.34 299.698 103.726 299.142 106.608 299.142C107.502 299.142 108.258 299.201 108.894 299.341V305.761H105.773C102.672 305.761 100.108 306.477 98.0406 307.888C95.9733 309.299 94.9595 312.082 94.9595 316.197V331.722H88.5389V299.539V299.52Z" fill="black"></path><path d="M129.189 332.596C126.088 332.596 123.226 331.901 120.562 330.489C117.919 329.098 115.792 327.09 114.241 324.506C112.671 321.922 111.896 318.96 111.896 315.601C111.896 312.242 112.671 309.22 114.241 306.636C115.811 304.052 117.919 302.064 120.562 300.653C123.206 299.261 126.088 298.546 129.189 298.546C133.642 298.546 137.359 299.599 140.361 301.726C143.362 303.853 145.27 306.596 146.125 309.995H139.069C138.174 308.127 136.902 306.696 135.212 305.662C133.543 304.648 131.535 304.131 129.209 304.131C127.341 304.131 125.571 304.608 123.902 305.563C122.232 306.517 120.88 307.868 119.886 309.598C118.893 311.347 118.396 313.335 118.396 315.581C118.396 317.827 118.912 319.755 119.926 321.505C120.94 323.254 122.272 324.586 123.942 325.54C125.611 326.494 127.38 326.971 129.289 326.971C131.614 326.971 133.622 326.454 135.272 325.44C136.922 324.427 138.174 322.995 139.029 321.187H146.145C145.29 324.546 143.382 327.269 140.381 329.396C137.399 331.523 133.662 332.577 129.209 332.577L129.189 332.596Z" fill="black"></path><path d="M153.5 290.296H159.92V304.728C160.974 302.78 162.524 301.269 164.532 300.176C166.54 299.082 168.885 298.546 171.569 298.546C175.505 298.546 178.685 299.679 181.07 301.925C183.456 304.171 184.668 307.292 184.668 311.267V331.682H178.248V313.235C178.248 310.433 177.492 308.246 175.982 306.676C174.471 305.105 172.404 304.33 169.78 304.33C167.991 304.33 166.361 304.728 164.85 305.503C163.339 306.298 162.147 307.411 161.252 308.842C160.358 310.293 159.92 311.963 159.92 313.871V331.682H153.5V290.276V290.296Z" fill="black"></path><path d="M193.434 288.269H200.868V295.703H193.434V288.269ZM193.951 299.52H200.312V331.702H193.951V299.52Z" fill="black"></path><path d="M223.649 331.702C220.806 331.702 218.659 330.927 217.228 329.376C215.777 327.826 215.061 325.579 215.061 322.598V305.423H206.037V299.5H215.061V290.276H221.482V299.5H232.673V305.423H221.482V321.524C221.482 324.407 222.893 325.858 225.736 325.858H230.447V331.702H223.649Z" fill="black"></path><path d="M253.426 332.596C250.166 332.596 247.244 331.901 244.64 330.489C242.036 329.078 240.028 327.09 238.557 324.486C237.086 321.882 236.371 318.841 236.371 315.362C236.371 312.221 237.066 309.379 238.478 306.835C239.869 304.29 241.857 302.282 244.421 300.792C246.985 299.301 249.967 298.565 253.366 298.565C256.765 298.565 259.787 299.301 262.311 300.752C264.836 302.223 266.784 304.191 268.135 306.675C269.487 309.16 270.163 311.903 270.163 314.905V316.932H242.692C242.91 320.113 244.043 322.618 246.091 324.466C248.138 326.315 250.663 327.229 253.625 327.229C256.129 327.229 258.216 326.653 259.886 325.52C261.556 324.367 262.629 322.936 263.106 321.186H269.905C269.01 324.665 267.122 327.428 264.22 329.495C261.317 331.563 257.719 332.576 253.446 332.576L253.426 332.596ZM263.524 311.665C263.146 309.339 262.053 307.451 260.244 306.039C258.435 304.628 256.149 303.912 253.346 303.912C250.544 303.912 248.337 304.628 246.449 306.079C244.56 307.53 243.388 309.379 242.91 311.685H263.524V311.665Z" fill="black"></path><path d="M277.518 290.296H283.938V312.361L300.357 299.52H309.461L292.804 312.619L308.964 331.702H301.073L287.973 316.436L283.958 319.676V331.702H277.538V290.296H277.518Z" fill="black"></path><path d="M328.862 331.702C326.02 331.702 323.873 330.927 322.442 329.376C320.991 327.826 320.275 325.579 320.275 322.598V305.423H311.25V299.5H320.275V290.276H326.695V299.5H337.887V305.423H326.695V321.524C326.695 324.407 328.107 325.858 330.949 325.858H335.66V331.702H328.862Z" fill="black"></path><path d="M357.983 332.596C353.789 332.596 350.509 331.483 348.184 329.257C345.858 327.031 344.685 323.771 344.685 319.497V299.52H351.106V318.602C351.106 321.326 351.821 323.373 353.233 324.745C354.644 326.116 356.652 326.812 359.236 326.812C361.661 326.812 363.748 326.037 365.537 324.466C367.326 322.896 368.201 320.57 368.201 317.469V299.539H374.621V331.722H368.459V326.057C367.445 328.144 366.094 329.754 364.424 330.887C362.754 332.02 360.588 332.596 357.964 332.596H357.983Z" fill="black"></path><path d="M384.202 299.52H390.444V305.821C391.676 303.535 393.227 301.845 395.115 300.772C397.003 299.698 399.389 299.142 402.271 299.142C403.166 299.142 403.921 299.201 404.557 299.341V305.761H401.436C398.335 305.761 395.771 306.477 393.704 307.888C391.636 309.299 390.623 312.082 390.623 316.197V331.722H384.202V299.539V299.52Z" fill="black"></path><style>@media (prefers-color-scheme: light) { :root { filter: none; } }
@media (prefers-color-scheme: dark) { :root { filter: invert(100%); } }
</style></svg>