<svg xmlns="http://www.w3.org/2000/svg" width="512" height="512" viewBox="0 0 512 512" fill="none"><metadata><rdf:RDF xmlns:rdf="http://www.w3.org/1999/02/22-rdf-syntax-ns#" xmlns:dc="http://purl.org/dc/elements/1.1/"><rdf:Description><dc:creator>RealFaviconGenerator</dc:creator><dc:source>https://realfavicongenerator.net</dc:source></rdf:Description></rdf:RDF></metadata><path d="M395.39 295.91C376.87 295.91 362.34 288.5 362.34 273.97C362.34 263.43 368.89 257.44 385.13 255.16L426.16 249.75C432.71 248.9 439.27 246.33 443.54 242.34V254.31C443.54 280.81 421.03 295.91 395.39 295.91ZM392.26 320.12C415.91 320.12 434.71 310.43 444.69 289.63V316.13H472.61V219.26C472.61 187.35 449.25 167.69 409.07 167.69C368.89 167.69 339.55 190.77 332.71 218.98H364.62C369.75 202.45 386.84 191.91 409.35 191.91C431.86 191.91 443.83 202.74 443.83 215.27C443.83 222.96 438.42 227.52 428.73 228.66L375.73 234.93C348.38 238.06 332.71 251.17 332.71 273.68C332.71 302.17 356.36 320.12 392.26 320.12ZM170.3 316.13H304.22V290.2H202.5L307.07 203.58V171.95H170.31V197.88H275.45L170.31 284.78V316.12L170.3 316.13ZM68.58 170.25V197.89H27.27V224.39H68.58V316.14H97.36V224.39H150.07V197.89H97.36V173.67C97.36 161.99 102.2 156.57 114.17 156.57H142.95V130.64H105.34C80.84 130.64 68.58 146.31 68.58 170.24" fill="#1D1D1B"></path><style>@media (prefers-color-scheme: light) { :root { filter: none; } }
@media (prefers-color-scheme: dark) { :root { filter: invert(100%); } }
</style></svg>