<svg xmlns="http://www.w3.org/2000/svg" version="1.1" xmlns:xlink="http://www.w3.org/1999/xlink" xmlns:svgjs="http://svgjs.dev/svgjs" width="1000" height="1000"><style>
    #light-icon {
      display: inline;
    }
    #dark-icon {
      display: none;
    }

    @media (prefers-color-scheme: dark) {
      #light-icon {
        display: none;
      }
      #dark-icon {
        display: inline;
      }
    }
  </style><g id="light-icon"><svg xmlns="http://www.w3.org/2000/svg" version="1.1" xmlns:xlink="http://www.w3.org/1999/xlink" xmlns:svgjs="http://svgjs.dev/svgjs" width="1000" height="1000"><g><g transform="matrix(1.6666666666666667,0,0,1.6666666666666667,0,0)"><svg xmlns="http://www.w3.org/2000/svg" version="1.1" xmlns:xlink="http://www.w3.org/1999/xlink" xmlns:svgjs="http://svgjs.dev/svgjs" width="600" height="600"><svg version="1.1" xmlns="http://www.w3.org/2000/svg" xmlns:xlink="http://www.w3.org/1999/xlink" x="0px" y="0px" viewBox="0 0 600 600" enable-background="new 0 0 600 600" xml:space="preserve">
<g id="Rot" display="none">
	<path display="inline" fill="#E94264" d="M576,600H24c-13.2,0-24-10.8-24-24L0,24C0,10.8,10.8,0,24,0l552,0c13.2,0,24,10.8,24,24
		v552C600,589.2,589.2,600,576,600z"></path>
	<g display="inline">
		<path fill="#FFFFFF" d="M328.913,190.709v176.942c0,12.571-10.371,22.943-22.942,22.943c-12.572,0-22.629-10.372-22.629-22.943
			c0-82.343,0.314-114.085,2.2-130.742l-55,76.371c-4.714,6.6-10.372,9.743-15.714,9.743c-5.657,0-11-3.144-15.714-9.743
			l-54.371-76.371c1.885,16.343,2.2,47.457,2.2,130.742c0,12.571-10.057,22.943-22.628,22.943s-22.943-10.372-22.943-22.943V190.709
			c0-15.085,12.257-27.657,27.657-27.657c8.485,0,16.657,3.771,22,11l64.114,89.257l64.114-89.257c5.343-7.229,13.515-11,22-11
			C316.656,163.052,328.913,175.623,328.913,190.709z"></path>
		<path fill="#324376" d="M367.887,388.394h160.914c9.114,0,17.601,7.857,17.601,17.6c0,9.429-8.172,17.286-17.601,17.286H367.887
			c-9.428,0-17.6-7.857-17.6-17.286C350.287,396.252,358.459,388.394,367.887,388.394z"></path>
	</g>
</g>
<g id="Transparent">
	<path display="none" fill="#E94264" d="M576,600H24c-13.2,0-24-10.8-24-24L0,24C0,10.8,10.8,0,24,0l552,0c13.2,0,24,10.8,24,24v552
		C600,589.2,589.2,600,576,600z"></path>
	<g>
		<path fill="#010202" d="M306.084,175.994v214.157c0,15.215-12.552,27.769-27.768,27.769c-15.216,0-27.388-12.553-27.388-27.769
			c0-99.661,0.381-138.08,2.663-158.24l-66.567,92.433c-5.706,7.988-12.553,11.792-19.019,11.792
			c-6.847,0-13.314-3.805-19.019-11.792l-65.806-92.433c2.282,19.78,2.662,57.438,2.662,158.24
			c0,15.215-12.172,27.769-27.388,27.769s-27.768-12.553-27.768-27.769V175.994c0-18.258,14.835-33.474,33.474-33.474
			c10.27,0,20.16,4.565,26.627,13.313l77.599,108.03l77.598-108.03c6.466-8.749,16.357-13.313,26.627-13.313
			C291.249,142.52,306.084,157.736,306.084,175.994z"></path>
		<path fill="#E94164" d="M353.255,415.257h194.757c11.031,0,21.302,9.51,21.302,21.301c0,11.412-9.891,20.922-21.302,20.922
			H353.255c-11.411,0-21.301-9.51-21.301-20.922C331.954,424.767,341.845,415.257,353.255,415.257z"></path>
	</g>
</g>
</svg></svg></g></g></svg></g><g id="dark-icon"><svg xmlns="http://www.w3.org/2000/svg" version="1.1" xmlns:xlink="http://www.w3.org/1999/xlink" xmlns:svgjs="http://svgjs.dev/svgjs" width="1000" height="1000"><g clip-path="url(#SvgjsClipPath1010)"><rect width="1000" height="1000" fill="#ffffff"></rect><g transform="matrix(1.1666666666666667,0,0,1.1666666666666667,150,150)"><svg xmlns="http://www.w3.org/2000/svg" version="1.1" xmlns:xlink="http://www.w3.org/1999/xlink" xmlns:svgjs="http://svgjs.dev/svgjs" width="600" height="600"><svg version="1.1" xmlns="http://www.w3.org/2000/svg" xmlns:xlink="http://www.w3.org/1999/xlink" x="0px" y="0px" viewBox="0 0 600 600" enable-background="new 0 0 600 600" xml:space="preserve">
<g id="Rot" display="none">
	<path display="inline" fill="#E94264" d="M576,600H24c-13.2,0-24-10.8-24-24L0,24C0,10.8,10.8,0,24,0l552,0c13.2,0,24,10.8,24,24
		v552C600,589.2,589.2,600,576,600z"></path>
	<g display="inline">
		<path fill="#FFFFFF" d="M328.913,190.709v176.942c0,12.571-10.371,22.943-22.942,22.943c-12.572,0-22.629-10.372-22.629-22.943
			c0-82.343,0.314-114.085,2.2-130.742l-55,76.371c-4.714,6.6-10.372,9.743-15.714,9.743c-5.657,0-11-3.144-15.714-9.743
			l-54.371-76.371c1.885,16.343,2.2,47.457,2.2,130.742c0,12.571-10.057,22.943-22.628,22.943s-22.943-10.372-22.943-22.943V190.709
			c0-15.085,12.257-27.657,27.657-27.657c8.485,0,16.657,3.771,22,11l64.114,89.257l64.114-89.257c5.343-7.229,13.515-11,22-11
			C316.656,163.052,328.913,175.623,328.913,190.709z"></path>
		<path fill="#324376" d="M367.887,388.394h160.914c9.114,0,17.601,7.857,17.601,17.6c0,9.429-8.172,17.286-17.601,17.286H367.887
			c-9.428,0-17.6-7.857-17.6-17.286C350.287,396.252,358.459,388.394,367.887,388.394z"></path>
	</g>
</g>
<g id="Transparent">
	<path display="none" fill="#E94264" d="M576,600H24c-13.2,0-24-10.8-24-24L0,24C0,10.8,10.8,0,24,0l552,0c13.2,0,24,10.8,24,24v552
		C600,589.2,589.2,600,576,600z"></path>
	<g>
		<path fill="#010202" d="M306.084,175.994v214.157c0,15.215-12.552,27.769-27.768,27.769c-15.216,0-27.388-12.553-27.388-27.769
			c0-99.661,0.381-138.08,2.663-158.24l-66.567,92.433c-5.706,7.988-12.553,11.792-19.019,11.792
			c-6.847,0-13.314-3.805-19.019-11.792l-65.806-92.433c2.282,19.78,2.662,57.438,2.662,158.24
			c0,15.215-12.172,27.769-27.388,27.769s-27.768-12.553-27.768-27.769V175.994c0-18.258,14.835-33.474,33.474-33.474
			c10.27,0,20.16,4.565,26.627,13.313l77.599,108.03l77.598-108.03c6.466-8.749,16.357-13.313,26.627-13.313
			C291.249,142.52,306.084,157.736,306.084,175.994z"></path>
		<path fill="#E94164" d="M353.255,415.257h194.757c11.031,0,21.302,9.51,21.302,21.301c0,11.412-9.891,20.922-21.302,20.922
			H353.255c-11.411,0-21.301-9.51-21.301-20.922C331.954,424.767,341.845,415.257,353.255,415.257z"></path>
	</g>
</g>
</svg></svg></g></g><defs><clipPath id="SvgjsClipPath1010"><rect width="1000" height="1000" x="0" y="0" rx="500" ry="500"></rect></clipPath></defs></svg></g></svg>